solid CATIA STL
  facet normal  0.000000e+000  0.000000e+000 -9.999999e-001
    outer loop
      vertex  5.000000e-001  5.000000e-001  1.000000e+001
      vertex  5.000000e-001  7.250000e+001  1.000000e+001
      vertex  5.200000e+001  3.933013e+001  1.000000e+001
    endloop
  endfacet
  facet normal  0.000000e+000  0.000000e+000 -1.000000e+000
    outer loop
      vertex  5.000000e-001  5.000000e-001  1.000000e+001
      vertex  5.200000e+001  3.933013e+001  1.000000e+001
      vertex  5.016987e+001  3.750000e+001  1.000000e+001
    endloop
  endfacet
  facet normal  0.000000e+000  0.000000e+000 -1.000000e+000
    outer loop
      vertex  5.000000e-001  5.000000e-001  1.000000e+001
      vertex  5.016987e+001  3.750000e+001  1.000000e+001
      vertex  4.950000e+001  3.500000e+001  1.000000e+001
    endloop
  endfacet
  facet normal  0.000000e+000  -0.000000e+000 -1.000000e+000
    outer loop
      vertex  5.000000e-001  5.000000e-001  1.000000e+001
      vertex  4.950000e+001  3.500000e+001  1.000000e+001
      vertex  5.016987e+001  3.250000e+001  1.000000e+001
    endloop
  endfacet
  facet normal  0.000000e+000  -0.000000e+000 -9.999999e-001
    outer loop
      vertex  5.000000e-001  5.000000e-001  1.000000e+001
      vertex  5.016987e+001  3.250000e+001  1.000000e+001
      vertex  5.200000e+001  3.066987e+001  1.000000e+001
    endloop
  endfacet
  facet normal  0.000000e+000  -0.000000e+000 -1.000000e+000
    outer loop
      vertex  5.000000e-001  5.000000e-001  1.000000e+001
      vertex  5.200000e+001  3.066987e+001  1.000000e+001
      vertex  5.450000e+001  3.000000e+001  1.000000e+001
    endloop
  endfacet
  facet normal  0.000000e+000  -0.000000e+000 -1.000000e+000
    outer loop
      vertex  5.000000e-001  5.000000e-001  1.000000e+001
      vertex  5.450000e+001  3.000000e+001  1.000000e+001
      vertex  8.300000e+001  5.000000e-001  1.000000e+001
    endloop
  endfacet
  facet normal  0.000000e+000  0.000000e+000 -1.000000e+000
    outer loop
      vertex  8.300000e+001  5.000000e-001  1.000000e+001
      vertex  5.450000e+001  3.000000e+001  1.000000e+001
      vertex  5.700000e+001  3.066987e+001  1.000000e+001
    endloop
  endfacet
  facet normal  0.000000e+000  0.000000e+000 -1.000000e+000
    outer loop
      vertex  8.300000e+001  5.000000e-001  1.000000e+001
      vertex  5.700000e+001  3.066987e+001  1.000000e+001
      vertex  5.883013e+001  3.250000e+001  1.000000e+001
    endloop
  endfacet
  facet normal  0.000000e+000  0.000000e+000 -1.000000e+000
    outer loop
      vertex  8.300000e+001  5.000000e-001  1.000000e+001
      vertex  5.883013e+001  3.250000e+001  1.000000e+001
      vertex  5.950000e+001  3.500000e+001  1.000000e+001
    endloop
  endfacet
  facet normal  0.000000e+000  0.000000e+000 -1.000000e+000
    outer loop
      vertex  8.300000e+001  5.000000e-001  1.000000e+001
      vertex  5.950000e+001  3.500000e+001  1.000000e+001
      vertex  5.883013e+001  3.750000e+001  1.000000e+001
    endloop
  endfacet
  facet normal  0.000000e+000  0.000000e+000 -9.999999e-001
    outer loop
      vertex  8.300000e+001  7.250000e+001  1.000000e+001
      vertex  8.300000e+001  5.000000e-001  1.000000e+001
      vertex  5.883013e+001  3.750000e+001  1.000000e+001
    endloop
  endfacet
  facet normal  0.000000e+000  0.000000e+000 -1.000000e+000
    outer loop
      vertex  8.300000e+001  7.250000e+001  1.000000e+001
      vertex  5.883013e+001  3.750000e+001  1.000000e+001
      vertex  5.700000e+001  3.933013e+001  1.000000e+001
    endloop
  endfacet
  facet normal  0.000000e+000  0.000000e+000 -9.999999e-001
    outer loop
      vertex  8.300000e+001  7.250000e+001  1.000000e+001
      vertex  5.700000e+001  3.933013e+001  1.000000e+001
      vertex  5.450000e+001  4.000000e+001  1.000000e+001
    endloop
  endfacet
  facet normal  -0.000000e+000  0.000000e+000 -1.000000e+000
    outer loop
      vertex  8.300000e+001  7.250000e+001  1.000000e+001
      vertex  5.450000e+001  4.000000e+001  1.000000e+001
      vertex  5.200000e+001  3.933013e+001  1.000000e+001
    endloop
  endfacet
  facet normal  0.000000e+000  0.000000e+000 -1.000000e+000
    outer loop
      vertex  8.300000e+001  7.250000e+001  1.000000e+001
      vertex  5.200000e+001  3.933013e+001  1.000000e+001
      vertex  5.000000e-001  7.250000e+001  1.000000e+001
    endloop
  endfacet
  facet normal  0.000000e+000  0.000000e+000  1.000000e+000
    outer loop
      vertex  1.650000e+001  8.000000e+000  1.500000e+001
      vertex  8.050000e+001  8.000000e+000  1.500000e+001
      vertex  5.450000e+001  3.000000e+001  1.500000e+001
    endloop
  endfacet
  facet normal  0.000000e+000  0.000000e+000  1.000000e+000
    outer loop
      vertex  1.650000e+001  8.000000e+000  1.500000e+001
      vertex  5.450000e+001  3.000000e+001  1.500000e+001
      vertex  5.200000e+001  3.066987e+001  1.500000e+001
    endloop
  endfacet
  facet normal  0.000000e+000  0.000000e+000  1.000000e+000
    outer loop
      vertex  1.650000e+001  8.000000e+000  1.500000e+001
      vertex  5.200000e+001  3.066987e+001  1.500000e+001
      vertex  5.016987e+001  3.250000e+001  1.500000e+001
    endloop
  endfacet
  facet normal  0.000000e+000  0.000000e+000  1.000000e+000
    outer loop
      vertex  1.650000e+001  8.000000e+000  1.500000e+001
      vertex  5.016987e+001  3.250000e+001  1.500000e+001
      vertex  4.950000e+001  3.500000e+001  1.500000e+001
    endloop
  endfacet
  facet normal  0.000000e+000  -0.000000e+000  1.000000e+000
    outer loop
      vertex  1.650000e+001  8.000000e+000  1.500000e+001
      vertex  4.950000e+001  3.500000e+001  1.500000e+001
      vertex  5.016987e+001  3.750000e+001  1.500000e+001
    endloop
  endfacet
  facet normal  0.000000e+000  -0.000000e+000  1.000000e+000
    outer loop
      vertex  1.650000e+001  8.000000e+000  1.500000e+001
      vertex  5.016987e+001  3.750000e+001  1.500000e+001
      vertex  5.200000e+001  3.933013e+001  1.500000e+001
    endloop
  endfacet
  facet normal  0.000000e+000  0.000000e+000  9.999999e-001
    outer loop
      vertex  1.650000e+001  8.000000e+000  1.500000e+001
      vertex  5.200000e+001  3.933013e+001  1.500000e+001
      vertex  1.650000e+001  6.200000e+001  1.500000e+001
    endloop
  endfacet
  facet normal  0.000000e+000  0.000000e+000  1.000000e+000
    outer loop
      vertex  8.050000e+001  8.000000e+000  1.500000e+001
      vertex  5.883013e+001  3.750000e+001  1.500000e+001
      vertex  5.950000e+001  3.500000e+001  1.500000e+001
    endloop
  endfacet
  facet normal  0.000000e+000  0.000000e+000  1.000000e+000
    outer loop
      vertex  8.050000e+001  8.000000e+000  1.500000e+001
      vertex  5.950000e+001  3.500000e+001  1.500000e+001
      vertex  5.883013e+001  3.250000e+001  1.500000e+001
    endloop
  endfacet
  facet normal  0.000000e+000  0.000000e+000  1.000000e+000
    outer loop
      vertex  8.050000e+001  8.000000e+000  1.500000e+001
      vertex  5.883013e+001  3.250000e+001  1.500000e+001
      vertex  5.700000e+001  3.066987e+001  1.500000e+001
    endloop
  endfacet
  facet normal  0.000000e+000  0.000000e+000  1.000000e+000
    outer loop
      vertex  8.050000e+001  8.000000e+000  1.500000e+001
      vertex  5.700000e+001  3.066987e+001  1.500000e+001
      vertex  5.450000e+001  3.000000e+001  1.500000e+001
    endloop
  endfacet
  facet normal  -0.000000e+000  0.000000e+000  1.000000e+000
    outer loop
      vertex  8.050000e+001  6.200000e+001  1.500000e+001
      vertex  1.650000e+001  6.200000e+001  1.500000e+001
      vertex  5.200000e+001  3.933013e+001  1.500000e+001
    endloop
  endfacet
  facet normal  0.000000e+000  0.000000e+000  9.999999e-001
    outer loop
      vertex  8.050000e+001  6.200000e+001  1.500000e+001
      vertex  5.200000e+001  3.933013e+001  1.500000e+001
      vertex  5.450000e+001  4.000000e+001  1.500000e+001
    endloop
  endfacet
  facet normal  -0.000000e+000  0.000000e+000  1.000000e+000
    outer loop
      vertex  8.050000e+001  6.200000e+001  1.500000e+001
      vertex  5.450000e+001  4.000000e+001  1.500000e+001
      vertex  5.700000e+001  3.933013e+001  1.500000e+001
    endloop
  endfacet
  facet normal  -0.000000e+000  0.000000e+000  1.000000e+000
    outer loop
      vertex  8.050000e+001  6.200000e+001  1.500000e+001
      vertex  5.700000e+001  3.933013e+001  1.500000e+001
      vertex  5.883013e+001  3.750000e+001  1.500000e+001
    endloop
  endfacet
  facet normal  -0.000000e+000  0.000000e+000  1.000000e+000
    outer loop
      vertex  8.050000e+001  6.200000e+001  1.500000e+001
      vertex  5.883013e+001  3.750000e+001  1.500000e+001
      vertex  8.050000e+001  8.000000e+000  1.500000e+001
    endloop
  endfacet
  facet normal  2.588188e-001 -9.659259e-001  0.000000e+000
    outer loop
      vertex  5.450000e+001  4.000000e+001  1.000000e+001
      vertex  5.200000e+001  3.933013e+001  1.500000e+001
      vertex  5.200000e+001  3.933013e+001  1.000000e+001
    endloop
  endfacet
  facet normal  7.071068e-001 -7.071068e-001  0.000000e+000
    outer loop
      vertex  5.200000e+001  3.933013e+001  1.000000e+001
      vertex  5.200000e+001  3.933013e+001  1.500000e+001
      vertex  5.016987e+001  3.750000e+001  1.500000e+001
    endloop
  endfacet
  facet normal  7.071068e-001 -7.071068e-001  0.000000e+000
    outer loop
      vertex  5.200000e+001  3.933013e+001  1.000000e+001
      vertex  5.016987e+001  3.750000e+001  1.500000e+001
      vertex  5.016987e+001  3.750000e+001  1.000000e+001
    endloop
  endfacet
  facet normal  9.659259e-001 -2.588188e-001  0.000000e+000
    outer loop
      vertex  5.016987e+001  3.750000e+001  1.000000e+001
      vertex  5.016987e+001  3.750000e+001  1.500000e+001
      vertex  4.950000e+001  3.500000e+001  1.500000e+001
    endloop
  endfacet
  facet normal  9.659259e-001 -2.588188e-001  0.000000e+000
    outer loop
      vertex  5.016987e+001  3.750000e+001  1.000000e+001
      vertex  4.950000e+001  3.500000e+001  1.500000e+001
      vertex  4.950000e+001  3.500000e+001  1.000000e+001
    endloop
  endfacet
  facet normal  2.588188e-001 -9.659259e-001  0.000000e+000
    outer loop
      vertex  5.200000e+001  3.933013e+001  1.500000e+001
      vertex  5.450000e+001  4.000000e+001  1.000000e+001
      vertex  5.450000e+001  4.000000e+001  1.500000e+001
    endloop
  endfacet
  facet normal -2.588188e-001 -9.659259e-001  -0.000000e+000
    outer loop
      vertex  5.450000e+001  4.000000e+001  1.500000e+001
      vertex  5.450000e+001  4.000000e+001  1.000000e+001
      vertex  5.700000e+001  3.933013e+001  1.000000e+001
    endloop
  endfacet
  facet normal -2.588188e-001 -9.659259e-001  0.000000e+000
    outer loop
      vertex  5.450000e+001  4.000000e+001  1.500000e+001
      vertex  5.700000e+001  3.933013e+001  1.000000e+001
      vertex  5.700000e+001  3.933013e+001  1.500000e+001
    endloop
  endfacet
  facet normal -7.071068e-001 -7.071068e-001  -0.000000e+000
    outer loop
      vertex  5.700000e+001  3.933013e+001  1.500000e+001
      vertex  5.700000e+001  3.933013e+001  1.000000e+001
      vertex  5.883013e+001  3.750000e+001  1.000000e+001
    endloop
  endfacet
  facet normal -7.071068e-001 -7.071068e-001  0.000000e+000
    outer loop
      vertex  5.700000e+001  3.933013e+001  1.500000e+001
      vertex  5.883013e+001  3.750000e+001  1.000000e+001
      vertex  5.883013e+001  3.750000e+001  1.500000e+001
    endloop
  endfacet
  facet normal -9.659259e-001 -2.588188e-001  -0.000000e+000
    outer loop
      vertex  5.883013e+001  3.750000e+001  1.500000e+001
      vertex  5.883013e+001  3.750000e+001  1.000000e+001
      vertex  5.950000e+001  3.500000e+001  1.000000e+001
    endloop
  endfacet
  facet normal -9.659259e-001 -2.588188e-001  0.000000e+000
    outer loop
      vertex  5.883013e+001  3.750000e+001  1.500000e+001
      vertex  5.950000e+001  3.500000e+001  1.000000e+001
      vertex  5.950000e+001  3.500000e+001  1.500000e+001
    endloop
  endfacet
  facet normal -2.588188e-001  9.659259e-001  0.000000e+000
    outer loop
      vertex  5.450000e+001  3.000000e+001  1.000000e+001
      vertex  5.700000e+001  3.066987e+001  1.500000e+001
      vertex  5.700000e+001  3.066987e+001  1.000000e+001
    endloop
  endfacet
  facet normal -7.071068e-001  7.071068e-001  0.000000e+000
    outer loop
      vertex  5.700000e+001  3.066987e+001  1.000000e+001
      vertex  5.700000e+001  3.066987e+001  1.500000e+001
      vertex  5.883013e+001  3.250000e+001  1.500000e+001
    endloop
  endfacet
  facet normal -7.071068e-001  7.071068e-001  0.000000e+000
    outer loop
      vertex  5.700000e+001  3.066987e+001  1.000000e+001
      vertex  5.883013e+001  3.250000e+001  1.500000e+001
      vertex  5.883013e+001  3.250000e+001  1.000000e+001
    endloop
  endfacet
  facet normal -9.659259e-001  2.588188e-001  0.000000e+000
    outer loop
      vertex  5.883013e+001  3.250000e+001  1.000000e+001
      vertex  5.883013e+001  3.250000e+001  1.500000e+001
      vertex  5.950000e+001  3.500000e+001  1.500000e+001
    endloop
  endfacet
  facet normal -9.659259e-001  2.588188e-001  0.000000e+000
    outer loop
      vertex  5.883013e+001  3.250000e+001  1.000000e+001
      vertex  5.950000e+001  3.500000e+001  1.500000e+001
      vertex  5.950000e+001  3.500000e+001  1.000000e+001
    endloop
  endfacet
  facet normal -2.588188e-001  9.659259e-001  0.000000e+000
    outer loop
      vertex  5.700000e+001  3.066987e+001  1.500000e+001
      vertex  5.450000e+001  3.000000e+001  1.000000e+001
      vertex  5.450000e+001  3.000000e+001  1.500000e+001
    endloop
  endfacet
  facet normal  2.588188e-001  9.659259e-001  0.000000e+000
    outer loop
      vertex  5.450000e+001  3.000000e+001  1.500000e+001
      vertex  5.450000e+001  3.000000e+001  1.000000e+001
      vertex  5.200000e+001  3.066987e+001  1.000000e+001
    endloop
  endfacet
  facet normal  2.588188e-001  9.659259e-001  -0.000000e+000
    outer loop
      vertex  5.450000e+001  3.000000e+001  1.500000e+001
      vertex  5.200000e+001  3.066987e+001  1.000000e+001
      vertex  5.200000e+001  3.066987e+001  1.500000e+001
    endloop
  endfacet
  facet normal  7.071068e-001  7.071068e-001  0.000000e+000
    outer loop
      vertex  5.200000e+001  3.066987e+001  1.500000e+001
      vertex  5.200000e+001  3.066987e+001  1.000000e+001
      vertex  5.016987e+001  3.250000e+001  1.000000e+001
    endloop
  endfacet
  facet normal  7.071068e-001  7.071068e-001  -0.000000e+000
    outer loop
      vertex  5.200000e+001  3.066987e+001  1.500000e+001
      vertex  5.016987e+001  3.250000e+001  1.000000e+001
      vertex  5.016987e+001  3.250000e+001  1.500000e+001
    endloop
  endfacet
  facet normal  9.659259e-001  2.588188e-001  0.000000e+000
    outer loop
      vertex  5.016987e+001  3.250000e+001  1.500000e+001
      vertex  5.016987e+001  3.250000e+001  1.000000e+001
      vertex  4.950000e+001  3.500000e+001  1.000000e+001
    endloop
  endfacet
  facet normal  9.659259e-001  2.588188e-001  -0.000000e+000
    outer loop
      vertex  5.016987e+001  3.250000e+001  1.500000e+001
      vertex  4.950000e+001  3.500000e+001  1.000000e+001
      vertex  4.950000e+001  3.500000e+001  1.500000e+001
    endloop
  endfacet
  facet normal  -0.000000e+000  0.000000e+000 -1.000000e+000
    outer loop
      vertex  1.350000e+001  3.800000e+001  2.500000e+001
      vertex  1.650000e+001  3.800000e+001  2.500000e+001
      vertex  1.350000e+001  3.200000e+001  2.500000e+001
    endloop
  endfacet
  facet normal  0.000000e+000  0.000000e+000 -1.000000e+000
    outer loop
      vertex  1.350000e+001  3.200000e+001  2.500000e+001
      vertex  1.650000e+001  3.800000e+001  2.500000e+001
      vertex  1.650000e+001  3.200000e+001  2.500000e+001
    endloop
  endfacet
  facet normal  0.000000e+000  0.000000e+000  1.000000e+000
    outer loop
      vertex  1.350000e+001  3.200000e+001  1.700000e+001
      vertex  1.650000e+001  3.200000e+001  1.700000e+001
      vertex  1.350000e+001  3.800000e+001  1.700000e+001
    endloop
  endfacet
  facet normal  -0.000000e+000  0.000000e+000  1.000000e+000
    outer loop
      vertex  1.350000e+001  3.800000e+001  1.700000e+001
      vertex  1.650000e+001  3.200000e+001  1.700000e+001
      vertex  1.650000e+001  3.800000e+001  1.700000e+001
    endloop
  endfacet
  facet normal  1.000000e+000  0.000000e+000  0.000000e+000
    outer loop
      vertex  1.650000e+001  3.200000e+001  2.500000e+001
      vertex  1.650000e+001  3.125834e+001  2.241421e+001
      vertex  1.650000e+001  3.200000e+001  2.364575e+001
    endloop
  endfacet
  facet normal  1.000000e+000  0.000000e+000  0.000000e+000
    outer loop
      vertex  1.650000e+001  8.000000e+000  1.500000e+001
      vertex  1.650000e+001  6.200000e+001  1.500000e+001
      vertex  1.650000e+001  3.800000e+001  1.700000e+001
    endloop
  endfacet
  facet normal  1.000000e+000  0.000000e+000  0.000000e+000
    outer loop
      vertex  1.650000e+001  8.000000e+000  1.500000e+001
      vertex  1.650000e+001  3.800000e+001  1.700000e+001
      vertex  1.650000e+001  3.200000e+001  1.700000e+001
    endloop
  endfacet
  facet normal  1.000000e+000  0.000000e+000  -0.000000e+000
    outer loop
      vertex  1.650000e+001  8.000000e+000  1.500000e+001
      vertex  1.650000e+001  3.200000e+001  1.700000e+001
      vertex  1.650000e+001  3.200000e+001  1.835425e+001
    endloop
  endfacet
  facet normal  1.000000e+000  0.000000e+000  0.000000e+000
    outer loop
      vertex  1.650000e+001  8.000000e+000  1.500000e+001
      vertex  1.650000e+001  3.200000e+001  1.835425e+001
      vertex  1.650000e+001  3.125834e+001  1.958579e+001
    endloop
  endfacet
  facet normal  1.000000e+000  0.000000e+000  0.000000e+000
    outer loop
      vertex  1.650000e+001  8.000000e+000  1.500000e+001
      vertex  1.650000e+001  3.125834e+001  1.958579e+001
      vertex  1.650000e+001  3.100000e+001  2.100000e+001
    endloop
  endfacet
  facet normal  1.000000e+000  0.000000e+000  -0.000000e+000
    outer loop
      vertex  1.650000e+001  8.000000e+000  1.500000e+001
      vertex  1.650000e+001  3.100000e+001  2.100000e+001
      vertex  1.650000e+001  3.125834e+001  2.241421e+001
    endloop
  endfacet
  facet normal  1.000000e+000  0.000000e+000  -0.000000e+000
    outer loop
      vertex  1.650000e+001  8.000000e+000  1.500000e+001
      vertex  1.650000e+001  3.125834e+001  2.241421e+001
      vertex  1.650000e+001  3.200000e+001  2.500000e+001
    endloop
  endfacet
  facet normal  1.000000e+000  0.000000e+000  0.000000e+000
    outer loop
      vertex  1.650000e+001  8.000000e+000  1.500000e+001
      vertex  1.650000e+001  3.200000e+001  2.500000e+001
      vertex  1.650000e+001  8.000000e+000  3.500000e+001
    endloop
  endfacet
  facet normal  9.999999e-001  0.000000e+000  0.000000e+000
    outer loop
      vertex  1.650000e+001  6.200000e+001  1.500000e+001
      vertex  1.650000e+001  6.200000e+001  3.500000e+001
      vertex  1.650000e+001  3.900000e+001  2.100000e+001
    endloop
  endfacet
  facet normal  1.000000e+000  0.000000e+000  0.000000e+000
    outer loop
      vertex  1.650000e+001  6.200000e+001  1.500000e+001
      vertex  1.650000e+001  3.900000e+001  2.100000e+001
      vertex  1.650000e+001  3.874166e+001  1.958579e+001
    endloop
  endfacet
  facet normal  1.000000e+000  0.000000e+000  0.000000e+000
    outer loop
      vertex  1.650000e+001  6.200000e+001  1.500000e+001
      vertex  1.650000e+001  3.874166e+001  1.958579e+001
      vertex  1.650000e+001  3.800000e+001  1.835425e+001
    endloop
  endfacet
  facet normal  1.000000e+000  0.000000e+000  0.000000e+000
    outer loop
      vertex  1.650000e+001  6.200000e+001  1.500000e+001
      vertex  1.650000e+001  3.800000e+001  1.835425e+001
      vertex  1.650000e+001  3.800000e+001  1.700000e+001
    endloop
  endfacet
  facet normal  1.000000e+000  -0.000000e+000  0.000000e+000
    outer loop
      vertex  1.650000e+001  6.200000e+001  3.500000e+001
      vertex  1.650000e+001  8.000000e+000  3.500000e+001
      vertex  1.650000e+001  3.200000e+001  2.500000e+001
    endloop
  endfacet
  facet normal  1.000000e+000  0.000000e+000  0.000000e+000
    outer loop
      vertex  1.650000e+001  6.200000e+001  3.500000e+001
      vertex  1.650000e+001  3.200000e+001  2.500000e+001
      vertex  1.650000e+001  3.800000e+001  2.500000e+001
    endloop
  endfacet
  facet normal  1.000000e+000  -0.000000e+000  0.000000e+000
    outer loop
      vertex  1.650000e+001  6.200000e+001  3.500000e+001
      vertex  1.650000e+001  3.800000e+001  2.500000e+001
      vertex  1.650000e+001  3.800000e+001  2.364575e+001
    endloop
  endfacet
  facet normal  1.000000e+000  -0.000000e+000  0.000000e+000
    outer loop
      vertex  1.650000e+001  6.200000e+001  3.500000e+001
      vertex  1.650000e+001  3.800000e+001  2.364575e+001
      vertex  1.650000e+001  3.874166e+001  2.241421e+001
    endloop
  endfacet
  facet normal  1.000000e+000  -0.000000e+000  0.000000e+000
    outer loop
      vertex  1.650000e+001  6.200000e+001  3.500000e+001
      vertex  1.650000e+001  3.874166e+001  2.241421e+001
      vertex  1.650000e+001  3.900000e+001  2.100000e+001
    endloop
  endfacet
  facet normal -1.000000e+000  0.000000e+000  0.000000e+000
    outer loop
      vertex  1.350000e+001  3.200000e+001  2.364575e+001
      vertex  1.350000e+001  3.125834e+001  2.241421e+001
      vertex  1.350000e+001  3.200000e+001  2.500000e+001
    endloop
  endfacet
  facet normal -1.000000e+000  0.000000e+000  0.000000e+000
    outer loop
      vertex  1.350000e+001  5.000000e+000  1.500000e+001
      vertex  1.350000e+001  5.000000e+000  3.500000e+001
      vertex  1.350000e+001  3.200000e+001  2.500000e+001
    endloop
  endfacet
  facet normal -1.000000e+000  0.000000e+000  0.000000e+000
    outer loop
      vertex  1.350000e+001  5.000000e+000  1.500000e+001
      vertex  1.350000e+001  3.200000e+001  2.500000e+001
      vertex  1.350000e+001  3.125834e+001  2.241421e+001
    endloop
  endfacet
  facet normal -1.000000e+000  0.000000e+000  0.000000e+000
    outer loop
      vertex  1.350000e+001  5.000000e+000  1.500000e+001
      vertex  1.350000e+001  3.125834e+001  2.241421e+001
      vertex  1.350000e+001  3.100000e+001  2.100000e+001
    endloop
  endfacet
  facet normal -1.000000e+000  0.000000e+000  -0.000000e+000
    outer loop
      vertex  1.350000e+001  5.000000e+000  1.500000e+001
      vertex  1.350000e+001  3.100000e+001  2.100000e+001
      vertex  1.350000e+001  3.125834e+001  1.958579e+001
    endloop
  endfacet
  facet normal -1.000000e+000  0.000000e+000  -0.000000e+000
    outer loop
      vertex  1.350000e+001  5.000000e+000  1.500000e+001
      vertex  1.350000e+001  3.125834e+001  1.958579e+001
      vertex  1.350000e+001  3.200000e+001  1.835425e+001
    endloop
  endfacet
  facet normal -9.999999e-001  0.000000e+000  -0.000000e+000
    outer loop
      vertex  1.350000e+001  5.000000e+000  1.500000e+001
      vertex  1.350000e+001  3.200000e+001  1.835425e+001
      vertex  1.350000e+001  3.200000e+001  1.700000e+001
    endloop
  endfacet
  facet normal -1.000000e+000  0.000000e+000  -0.000000e+000
    outer loop
      vertex  1.350000e+001  5.000000e+000  1.500000e+001
      vertex  1.350000e+001  3.200000e+001  1.700000e+001
      vertex  1.350000e+001  3.800000e+001  1.700000e+001
    endloop
  endfacet
  facet normal -1.000000e+000  0.000000e+000  -0.000000e+000
    outer loop
      vertex  1.350000e+001  5.000000e+000  1.500000e+001
      vertex  1.350000e+001  3.800000e+001  1.700000e+001
      vertex  1.350000e+001  6.500000e+001  1.500000e+001
    endloop
  endfacet
  facet normal -9.999999e-001  0.000000e+000  0.000000e+000
    outer loop
      vertex  1.350000e+001  6.500000e+001  1.500000e+001
      vertex  1.350000e+001  3.800000e+001  1.700000e+001
      vertex  1.350000e+001  3.800000e+001  1.835425e+001
    endloop
  endfacet
  facet normal -1.000000e+000  0.000000e+000  0.000000e+000
    outer loop
      vertex  1.350000e+001  6.500000e+001  1.500000e+001
      vertex  1.350000e+001  3.800000e+001  1.835425e+001
      vertex  1.350000e+001  3.874166e+001  1.958579e+001
    endloop
  endfacet
  facet normal -1.000000e+000  0.000000e+000  0.000000e+000
    outer loop
      vertex  1.350000e+001  6.500000e+001  1.500000e+001
      vertex  1.350000e+001  3.874166e+001  1.958579e+001
      vertex  1.350000e+001  3.900000e+001  2.100000e+001
    endloop
  endfacet
  facet normal -1.000000e+000  0.000000e+000  0.000000e+000
    outer loop
      vertex  1.350000e+001  6.500000e+001  1.500000e+001
      vertex  1.350000e+001  3.900000e+001  2.100000e+001
      vertex  1.350000e+001  6.500000e+001  3.500000e+001
    endloop
  endfacet
  facet normal -1.000000e+000  0.000000e+000  0.000000e+000
    outer loop
      vertex  1.350000e+001  6.500000e+001  3.500000e+001
      vertex  1.350000e+001  3.900000e+001  2.100000e+001
      vertex  1.350000e+001  3.874166e+001  2.241421e+001
    endloop
  endfacet
  facet normal -1.000000e+000  0.000000e+000  0.000000e+000
    outer loop
      vertex  1.350000e+001  6.500000e+001  3.500000e+001
      vertex  1.350000e+001  3.874166e+001  2.241421e+001
      vertex  1.350000e+001  3.800000e+001  2.364575e+001
    endloop
  endfacet
  facet normal -9.999999e-001  0.000000e+000  0.000000e+000
    outer loop
      vertex  1.350000e+001  6.500000e+001  3.500000e+001
      vertex  1.350000e+001  3.800000e+001  2.364575e+001
      vertex  1.350000e+001  3.800000e+001  2.500000e+001
    endloop
  endfacet
  facet normal -1.000000e+000  0.000000e+000  0.000000e+000
    outer loop
      vertex  1.350000e+001  6.500000e+001  3.500000e+001
      vertex  1.350000e+001  3.800000e+001  2.500000e+001
      vertex  1.350000e+001  3.200000e+001  2.500000e+001
    endloop
  endfacet
  facet normal -1.000000e+000  0.000000e+000  0.000000e+000
    outer loop
      vertex  1.350000e+001  6.500000e+001  3.500000e+001
      vertex  1.350000e+001  3.200000e+001  2.500000e+001
      vertex  1.350000e+001  5.000000e+000  3.500000e+001
    endloop
  endfacet
  facet normal  0.000000e+000 -8.566529e-001  5.158935e-001
    outer loop
      vertex  1.650000e+001  3.800000e+001  1.835425e+001
      vertex  1.650000e+001  3.874166e+001  1.958579e+001
      vertex  1.350000e+001  3.800000e+001  1.835425e+001
    endloop
  endfacet
  facet normal  0.000000e+000 -8.566529e-001  5.158935e-001
    outer loop
      vertex  1.350000e+001  3.800000e+001  1.835425e+001
      vertex  1.650000e+001  3.874166e+001  1.958579e+001
      vertex  1.350000e+001  3.874166e+001  1.958579e+001
    endloop
  endfacet
  facet normal  0.000000e+000 -9.837211e-001  1.797022e-001
    outer loop
      vertex  1.650000e+001  3.874166e+001  1.958579e+001
      vertex  1.650000e+001  3.900000e+001  2.100000e+001
      vertex  1.350000e+001  3.874166e+001  1.958579e+001
    endloop
  endfacet
  facet normal  0.000000e+000 -9.837211e-001  1.797022e-001
    outer loop
      vertex  1.350000e+001  3.874166e+001  1.958579e+001
      vertex  1.650000e+001  3.900000e+001  2.100000e+001
      vertex  1.350000e+001  3.900000e+001  2.100000e+001
    endloop
  endfacet
  facet normal  0.000000e+000  9.837211e-001  1.797022e-001
    outer loop
      vertex  1.650000e+001  3.100000e+001  2.100000e+001
      vertex  1.650000e+001  3.125834e+001  1.958579e+001
      vertex  1.350000e+001  3.100000e+001  2.100000e+001
    endloop
  endfacet
  facet normal  0.000000e+000  9.837211e-001  1.797022e-001
    outer loop
      vertex  1.350000e+001  3.100000e+001  2.100000e+001
      vertex  1.650000e+001  3.125834e+001  1.958579e+001
      vertex  1.350000e+001  3.125834e+001  1.958579e+001
    endloop
  endfacet
  facet normal  0.000000e+000  8.566529e-001  5.158935e-001
    outer loop
      vertex  1.650000e+001  3.125834e+001  1.958579e+001
      vertex  1.650000e+001  3.200000e+001  1.835425e+001
      vertex  1.350000e+001  3.125834e+001  1.958579e+001
    endloop
  endfacet
  facet normal  0.000000e+000  8.566529e-001  5.158935e-001
    outer loop
      vertex  1.350000e+001  3.125834e+001  1.958579e+001
      vertex  1.650000e+001  3.200000e+001  1.835425e+001
      vertex  1.350000e+001  3.200000e+001  1.835425e+001
    endloop
  endfacet
  facet normal  0.000000e+000  8.566529e-001 -5.158935e-001
    outer loop
      vertex  1.650000e+001  3.200000e+001  2.364575e+001
      vertex  1.650000e+001  3.125834e+001  2.241421e+001
      vertex  1.350000e+001  3.200000e+001  2.364575e+001
    endloop
  endfacet
  facet normal  0.000000e+000  8.566529e-001 -5.158935e-001
    outer loop
      vertex  1.350000e+001  3.200000e+001  2.364575e+001
      vertex  1.650000e+001  3.125834e+001  2.241421e+001
      vertex  1.350000e+001  3.125834e+001  2.241421e+001
    endloop
  endfacet
  facet normal  0.000000e+000  9.837211e-001 -1.797022e-001
    outer loop
      vertex  1.650000e+001  3.125834e+001  2.241421e+001
      vertex  1.650000e+001  3.100000e+001  2.100000e+001
      vertex  1.350000e+001  3.125834e+001  2.241421e+001
    endloop
  endfacet
  facet normal  0.000000e+000  9.837211e-001 -1.797022e-001
    outer loop
      vertex  1.350000e+001  3.125834e+001  2.241421e+001
      vertex  1.650000e+001  3.100000e+001  2.100000e+001
      vertex  1.350000e+001  3.100000e+001  2.100000e+001
    endloop
  endfacet
  facet normal  0.000000e+000 -9.837211e-001 -1.797022e-001
    outer loop
      vertex  1.650000e+001  3.900000e+001  2.100000e+001
      vertex  1.650000e+001  3.874166e+001  2.241421e+001
      vertex  1.350000e+001  3.900000e+001  2.100000e+001
    endloop
  endfacet
  facet normal  0.000000e+000 -9.837211e-001 -1.797022e-001
    outer loop
      vertex  1.350000e+001  3.900000e+001  2.100000e+001
      vertex  1.650000e+001  3.874166e+001  2.241421e+001
      vertex  1.350000e+001  3.874166e+001  2.241421e+001
    endloop
  endfacet
  facet normal  0.000000e+000 -8.566529e-001 -5.158935e-001
    outer loop
      vertex  1.650000e+001  3.874166e+001  2.241421e+001
      vertex  1.650000e+001  3.800000e+001  2.364575e+001
      vertex  1.350000e+001  3.874166e+001  2.241421e+001
    endloop
  endfacet
  facet normal  0.000000e+000 -8.566529e-001 -5.158935e-001
    outer loop
      vertex  1.350000e+001  3.874166e+001  2.241421e+001
      vertex  1.650000e+001  3.800000e+001  2.364575e+001
      vertex  1.350000e+001  3.800000e+001  2.364575e+001
    endloop
  endfacet
  facet normal  0.000000e+000 -1.000000e+000  0.000000e+000
    outer loop
      vertex  1.350000e+001  3.800000e+001  1.835425e+001
      vertex  1.350000e+001  3.800000e+001  1.700000e+001
      vertex  1.650000e+001  3.800000e+001  1.835425e+001
    endloop
  endfacet
  facet normal  0.000000e+000 -1.000000e+000  -0.000000e+000
    outer loop
      vertex  1.650000e+001  3.800000e+001  1.835425e+001
      vertex  1.350000e+001  3.800000e+001  1.700000e+001
      vertex  1.650000e+001  3.800000e+001  1.700000e+001
    endloop
  endfacet
  facet normal  0.000000e+000 -1.000000e+000  0.000000e+000
    outer loop
      vertex  1.350000e+001  3.800000e+001  2.500000e+001
      vertex  1.350000e+001  3.800000e+001  2.364575e+001
      vertex  1.650000e+001  3.800000e+001  2.500000e+001
    endloop
  endfacet
  facet normal  0.000000e+000 -1.000000e+000  -0.000000e+000
    outer loop
      vertex  1.650000e+001  3.800000e+001  2.500000e+001
      vertex  1.350000e+001  3.800000e+001  2.364575e+001
      vertex  1.650000e+001  3.800000e+001  2.364575e+001
    endloop
  endfacet
  facet normal  0.000000e+000  1.000000e+000  0.000000e+000
    outer loop
      vertex  1.350000e+001  3.200000e+001  2.364575e+001
      vertex  1.350000e+001  3.200000e+001  2.500000e+001
      vertex  1.650000e+001  3.200000e+001  2.364575e+001
    endloop
  endfacet
  facet normal  0.000000e+000  1.000000e+000  -0.000000e+000
    outer loop
      vertex  1.650000e+001  3.200000e+001  2.364575e+001
      vertex  1.350000e+001  3.200000e+001  2.500000e+001
      vertex  1.650000e+001  3.200000e+001  2.500000e+001
    endloop
  endfacet
  facet normal  0.000000e+000  1.000000e+000  0.000000e+000
    outer loop
      vertex  1.350000e+001  3.200000e+001  1.700000e+001
      vertex  1.350000e+001  3.200000e+001  1.835425e+001
      vertex  1.650000e+001  3.200000e+001  1.700000e+001
    endloop
  endfacet
  facet normal  0.000000e+000  1.000000e+000  -0.000000e+000
    outer loop
      vertex  1.650000e+001  3.200000e+001  1.700000e+001
      vertex  1.350000e+001  3.200000e+001  1.835425e+001
      vertex  1.650000e+001  3.200000e+001  1.835425e+001
    endloop
  endfacet
  facet normal  1.000000e+000  0.000000e+000  0.000000e+000
    outer loop
      vertex  8.350000e+001  7.300000e+001  0.000000e+000
      vertex  8.350000e+001  7.300000e+001  1.500000e+001
      vertex  8.350000e+001  6.500000e+001  1.500000e+001
    endloop
  endfacet
  facet normal  1.000000e+000  0.000000e+000  0.000000e+000
    outer loop
      vertex  8.350000e+001  7.300000e+001  0.000000e+000
      vertex  8.350000e+001  6.500000e+001  1.500000e+001
      vertex  8.350000e+001  5.000000e+000  1.500000e+001
    endloop
  endfacet
  facet normal  1.000000e+000  0.000000e+000  0.000000e+000
    outer loop
      vertex  8.350000e+001  7.300000e+001  0.000000e+000
      vertex  8.350000e+001  5.000000e+000  1.500000e+001
      vertex  8.350000e+001  0.000000e+000  1.500000e+001
    endloop
  endfacet
  facet normal  1.000000e+000  0.000000e+000  0.000000e+000
    outer loop
      vertex  8.350000e+001  7.300000e+001  0.000000e+000
      vertex  8.350000e+001  0.000000e+000  1.500000e+001
      vertex  8.350000e+001  0.000000e+000  0.000000e+000
    endloop
  endfacet
  facet normal  1.000000e+000  -0.000000e+000  0.000000e+000
    outer loop
      vertex  8.350000e+001  6.500000e+001  3.500000e+001
      vertex  8.350000e+001  5.000000e+000  3.500000e+001
      vertex  8.350000e+001  6.500000e+001  1.500000e+001
    endloop
  endfacet
  facet normal  1.000000e+000  0.000000e+000  0.000000e+000
    outer loop
      vertex  8.350000e+001  6.500000e+001  1.500000e+001
      vertex  8.350000e+001  5.000000e+000  3.500000e+001
      vertex  8.350000e+001  5.000000e+000  1.500000e+001
    endloop
  endfacet
  facet normal  0.000000e+000 -1.000000e+000  0.000000e+000
    outer loop
      vertex  8.350000e+001  5.000000e+000  3.500000e+001
      vertex  1.350000e+001  5.000000e+000  3.500000e+001
      vertex  8.350000e+001  5.000000e+000  1.500000e+001
    endloop
  endfacet
  facet normal  0.000000e+000 -1.000000e+000  0.000000e+000
    outer loop
      vertex  8.350000e+001  5.000000e+000  1.500000e+001
      vertex  1.350000e+001  5.000000e+000  3.500000e+001
      vertex  1.350000e+001  5.000000e+000  1.500000e+001
    endloop
  endfacet
  facet normal  0.000000e+000  1.000000e+000  0.000000e+000
    outer loop
      vertex  1.350000e+001  6.500000e+001  3.500000e+001
      vertex  8.350000e+001  6.500000e+001  3.500000e+001
      vertex  1.350000e+001  6.500000e+001  1.500000e+001
    endloop
  endfacet
  facet normal  0.000000e+000  1.000000e+000  0.000000e+000
    outer loop
      vertex  1.350000e+001  6.500000e+001  1.500000e+001
      vertex  8.350000e+001  6.500000e+001  3.500000e+001
      vertex  8.350000e+001  6.500000e+001  1.500000e+001
    endloop
  endfacet
  facet normal  0.000000e+000  0.000000e+000  1.000000e+000
    outer loop
      vertex  8.350000e+001  0.000000e+000  1.500000e+001
      vertex  8.350000e+001  5.000000e+000  1.500000e+001
      vertex  0.000000e+000  0.000000e+000  1.500000e+001
    endloop
  endfacet
  facet normal  0.000000e+000  0.000000e+000  1.000000e+000
    outer loop
      vertex  0.000000e+000  0.000000e+000  1.500000e+001
      vertex  8.350000e+001  5.000000e+000  1.500000e+001
      vertex  1.350000e+001  5.000000e+000  1.500000e+001
    endloop
  endfacet
  facet normal  0.000000e+000  0.000000e+000  1.000000e+000
    outer loop
      vertex  0.000000e+000  0.000000e+000  1.500000e+001
      vertex  1.350000e+001  5.000000e+000  1.500000e+001
      vertex  0.000000e+000  7.300000e+001  1.500000e+001
    endloop
  endfacet
  facet normal  0.000000e+000  0.000000e+000  1.000000e+000
    outer loop
      vertex  0.000000e+000  7.300000e+001  1.500000e+001
      vertex  1.350000e+001  5.000000e+000  1.500000e+001
      vertex  1.350000e+001  6.500000e+001  1.500000e+001
    endloop
  endfacet
  facet normal  0.000000e+000  -0.000000e+000  1.000000e+000
    outer loop
      vertex  0.000000e+000  7.300000e+001  1.500000e+001
      vertex  1.350000e+001  6.500000e+001  1.500000e+001
      vertex  8.350000e+001  7.300000e+001  1.500000e+001
    endloop
  endfacet
  facet normal  0.000000e+000  0.000000e+000  1.000000e+000
    outer loop
      vertex  8.350000e+001  7.300000e+001  1.500000e+001
      vertex  1.350000e+001  6.500000e+001  1.500000e+001
      vertex  8.350000e+001  6.500000e+001  1.500000e+001
    endloop
  endfacet
  facet normal  0.000000e+000  1.000000e+000  -0.000000e+000
    outer loop
      vertex  8.050000e+001  8.000000e+000  3.500000e+001
      vertex  8.050000e+001  8.000000e+000  1.500000e+001
      vertex  1.650000e+001  8.000000e+000  3.500000e+001
    endloop
  endfacet
  facet normal  0.000000e+000  1.000000e+000  0.000000e+000
    outer loop
      vertex  1.650000e+001  8.000000e+000  3.500000e+001
      vertex  8.050000e+001  8.000000e+000  1.500000e+001
      vertex  1.650000e+001  8.000000e+000  1.500000e+001
    endloop
  endfacet
  facet normal -1.000000e+000  -0.000000e+000  0.000000e+000
    outer loop
      vertex  8.050000e+001  8.000000e+000  3.500000e+001
      vertex  8.050000e+001  6.200000e+001  3.500000e+001
      vertex  8.050000e+001  8.000000e+000  1.500000e+001
    endloop
  endfacet
  facet normal -1.000000e+000  0.000000e+000  0.000000e+000
    outer loop
      vertex  8.050000e+001  8.000000e+000  1.500000e+001
      vertex  8.050000e+001  6.200000e+001  3.500000e+001
      vertex  8.050000e+001  6.200000e+001  1.500000e+001
    endloop
  endfacet
  facet normal  0.000000e+000 -1.000000e+000  0.000000e+000
    outer loop
      vertex  1.650000e+001  6.200000e+001  3.500000e+001
      vertex  1.650000e+001  6.200000e+001  1.500000e+001
      vertex  8.050000e+001  6.200000e+001  3.500000e+001
    endloop
  endfacet
  facet normal  0.000000e+000 -1.000000e+000  -0.000000e+000
    outer loop
      vertex  8.050000e+001  6.200000e+001  3.500000e+001
      vertex  1.650000e+001  6.200000e+001  1.500000e+001
      vertex  8.050000e+001  6.200000e+001  1.500000e+001
    endloop
  endfacet
  facet normal  0.000000e+000  0.000000e+000  1.000000e+000
    outer loop
      vertex  8.350000e+001  5.000000e+000  3.500000e+001
      vertex  8.050000e+001  8.000000e+000  3.500000e+001
      vertex  1.350000e+001  5.000000e+000  3.500000e+001
    endloop
  endfacet
  facet normal  0.000000e+000  0.000000e+000  1.000000e+000
    outer loop
      vertex  1.350000e+001  5.000000e+000  3.500000e+001
      vertex  8.050000e+001  8.000000e+000  3.500000e+001
      vertex  1.650000e+001  8.000000e+000  3.500000e+001
    endloop
  endfacet
  facet normal  0.000000e+000  0.000000e+000  1.000000e+000
    outer loop
      vertex  1.350000e+001  5.000000e+000  3.500000e+001
      vertex  1.650000e+001  8.000000e+000  3.500000e+001
      vertex  1.350000e+001  6.500000e+001  3.500000e+001
    endloop
  endfacet
  facet normal  0.000000e+000  0.000000e+000  1.000000e+000
    outer loop
      vertex  1.350000e+001  6.500000e+001  3.500000e+001
      vertex  1.650000e+001  8.000000e+000  3.500000e+001
      vertex  1.650000e+001  6.200000e+001  3.500000e+001
    endloop
  endfacet
  facet normal  0.000000e+000  -0.000000e+000  1.000000e+000
    outer loop
      vertex  1.350000e+001  6.500000e+001  3.500000e+001
      vertex  1.650000e+001  6.200000e+001  3.500000e+001
      vertex  8.350000e+001  6.500000e+001  3.500000e+001
    endloop
  endfacet
  facet normal  0.000000e+000  0.000000e+000  1.000000e+000
    outer loop
      vertex  8.350000e+001  6.500000e+001  3.500000e+001
      vertex  1.650000e+001  6.200000e+001  3.500000e+001
      vertex  8.050000e+001  6.200000e+001  3.500000e+001
    endloop
  endfacet
  facet normal  -0.000000e+000  0.000000e+000  1.000000e+000
    outer loop
      vertex  8.350000e+001  6.500000e+001  3.500000e+001
      vertex  8.050000e+001  6.200000e+001  3.500000e+001
      vertex  8.350000e+001  5.000000e+000  3.500000e+001
    endloop
  endfacet
  facet normal  0.000000e+000  0.000000e+000  1.000000e+000
    outer loop
      vertex  8.350000e+001  5.000000e+000  3.500000e+001
      vertex  8.050000e+001  6.200000e+001  3.500000e+001
      vertex  8.050000e+001  8.000000e+000  3.500000e+001
    endloop
  endfacet
  facet normal  -0.000000e+000  0.000000e+000 -1.000000e+000
    outer loop
      vertex  0.000000e+000  7.300000e+001  0.000000e+000
      vertex  5.000000e-001  5.000000e-001  0.000000e+000
      vertex  0.000000e+000  0.000000e+000  0.000000e+000
    endloop
  endfacet
  facet normal  0.000000e+000  0.000000e+000 -9.999999e-001
    outer loop
      vertex  0.000000e+000  0.000000e+000  0.000000e+000
      vertex  5.000000e-001  5.000000e-001  0.000000e+000
      vertex  8.300000e+001  5.000000e-001  0.000000e+000
    endloop
  endfacet
  facet normal  0.000000e+000  -0.000000e+000 -1.000000e+000
    outer loop
      vertex  0.000000e+000  0.000000e+000  0.000000e+000
      vertex  8.300000e+001  5.000000e-001  0.000000e+000
      vertex  8.350000e+001  0.000000e+000  0.000000e+000
    endloop
  endfacet
  facet normal  0.000000e+000  0.000000e+000 -1.000000e+000
    outer loop
      vertex  5.000000e-001  5.000000e-001  0.000000e+000
      vertex  0.000000e+000  7.300000e+001  0.000000e+000
      vertex  5.000000e-001  7.250000e+001  0.000000e+000
    endloop
  endfacet
  facet normal  0.000000e+000  0.000000e+000 -1.000000e+000
    outer loop
      vertex  5.000000e-001  7.250000e+001  0.000000e+000
      vertex  0.000000e+000  7.300000e+001  0.000000e+000
      vertex  8.350000e+001  7.300000e+001  0.000000e+000
    endloop
  endfacet
  facet normal  0.000000e+000  0.000000e+000 -9.999999e-001
    outer loop
      vertex  5.000000e-001  7.250000e+001  0.000000e+000
      vertex  8.350000e+001  7.300000e+001  0.000000e+000
      vertex  8.300000e+001  7.250000e+001  0.000000e+000
    endloop
  endfacet
  facet normal  0.000000e+000  0.000000e+000 -1.000000e+000
    outer loop
      vertex  8.300000e+001  7.250000e+001  0.000000e+000
      vertex  8.350000e+001  7.300000e+001  0.000000e+000
      vertex  8.350000e+001  0.000000e+000  0.000000e+000
    endloop
  endfacet
  facet normal  0.000000e+000  0.000000e+000 -1.000000e+000
    outer loop
      vertex  8.300000e+001  7.250000e+001  0.000000e+000
      vertex  8.350000e+001  0.000000e+000  0.000000e+000
      vertex  8.300000e+001  5.000000e-001  0.000000e+000
    endloop
  endfacet
  facet normal  0.000000e+000  9.999999e-001  -0.000000e+000
    outer loop
      vertex  8.350000e+001  7.300000e+001  1.500000e+001
      vertex  8.350000e+001  7.300000e+001  0.000000e+000
      vertex  0.000000e+000  7.300000e+001  1.500000e+001
    endloop
  endfacet
  facet normal  0.000000e+000  9.999999e-001  0.000000e+000
    outer loop
      vertex  0.000000e+000  7.300000e+001  1.500000e+001
      vertex  8.350000e+001  7.300000e+001  0.000000e+000
      vertex  0.000000e+000  7.300000e+001  0.000000e+000
    endloop
  endfacet
  facet normal -1.000000e+000  0.000000e+000  0.000000e+000
    outer loop
      vertex  0.000000e+000  7.300000e+001  1.500000e+001
      vertex  0.000000e+000  7.300000e+001  0.000000e+000
      vertex  0.000000e+000  0.000000e+000  1.500000e+001
    endloop
  endfacet
  facet normal -1.000000e+000  0.000000e+000  0.000000e+000
    outer loop
      vertex  0.000000e+000  0.000000e+000  1.500000e+001
      vertex  0.000000e+000  7.300000e+001  0.000000e+000
      vertex  0.000000e+000  0.000000e+000  0.000000e+000
    endloop
  endfacet
  facet normal  0.000000e+000 -9.999999e-001  0.000000e+000
    outer loop
      vertex  0.000000e+000  0.000000e+000  1.500000e+001
      vertex  0.000000e+000  0.000000e+000  0.000000e+000
      vertex  8.350000e+001  0.000000e+000  1.500000e+001
    endloop
  endfacet
  facet normal  0.000000e+000 -9.999999e-001  -0.000000e+000
    outer loop
      vertex  8.350000e+001  0.000000e+000  1.500000e+001
      vertex  0.000000e+000  0.000000e+000  0.000000e+000
      vertex  8.350000e+001  0.000000e+000  0.000000e+000
    endloop
  endfacet
  facet normal  1.000000e+000  -0.000000e+000  0.000000e+000
    outer loop
      vertex  5.000000e-001  7.250000e+001  1.000000e+001
      vertex  5.000000e-001  5.000000e-001  1.000000e+001
      vertex  5.000000e-001  7.250000e+001  0.000000e+000
    endloop
  endfacet
  facet normal  1.000000e+000  0.000000e+000  0.000000e+000
    outer loop
      vertex  5.000000e-001  7.250000e+001  0.000000e+000
      vertex  5.000000e-001  5.000000e-001  1.000000e+001
      vertex  5.000000e-001  5.000000e-001  0.000000e+000
    endloop
  endfacet
  facet normal  0.000000e+000  1.000000e+000  -0.000000e+000
    outer loop
      vertex  8.300000e+001  5.000000e-001  1.000000e+001
      vertex  8.300000e+001  5.000000e-001  0.000000e+000
      vertex  5.000000e-001  5.000000e-001  1.000000e+001
    endloop
  endfacet
  facet normal  0.000000e+000  1.000000e+000  0.000000e+000
    outer loop
      vertex  5.000000e-001  5.000000e-001  1.000000e+001
      vertex  8.300000e+001  5.000000e-001  0.000000e+000
      vertex  5.000000e-001  5.000000e-001  0.000000e+000
    endloop
  endfacet
  facet normal -1.000000e+000  -0.000000e+000  0.000000e+000
    outer loop
      vertex  8.300000e+001  5.000000e-001  1.000000e+001
      vertex  8.300000e+001  7.250000e+001  1.000000e+001
      vertex  8.300000e+001  5.000000e-001  0.000000e+000
    endloop
  endfacet
  facet normal -1.000000e+000  0.000000e+000  0.000000e+000
    outer loop
      vertex  8.300000e+001  5.000000e-001  0.000000e+000
      vertex  8.300000e+001  7.250000e+001  1.000000e+001
      vertex  8.300000e+001  7.250000e+001  0.000000e+000
    endloop
  endfacet
  facet normal  0.000000e+000 -1.000000e+000  0.000000e+000
    outer loop
      vertex  5.000000e-001  7.250000e+001  1.000000e+001
      vertex  5.000000e-001  7.250000e+001  0.000000e+000
      vertex  8.300000e+001  7.250000e+001  1.000000e+001
    endloop
  endfacet
  facet normal  0.000000e+000 -1.000000e+000  -0.000000e+000
    outer loop
      vertex  8.300000e+001  7.250000e+001  1.000000e+001
      vertex  5.000000e-001  7.250000e+001  0.000000e+000
      vertex  8.300000e+001  7.250000e+001  0.000000e+000
    endloop
  endfacet
endsolid CATIA STL
