solid CATIA STL
  facet normal  0.000000e+000  0.000000e+000 -1.000000e+000
    outer loop
      vertex  1.000000e+000  1.000000e+000  3.000000e+000
      vertex  1.000000e+000  5.200000e+001  3.000000e+000
      vertex  6.200000e+001  1.000000e+000  3.000000e+000
    endloop
  endfacet
  facet normal  0.000000e+000  0.000000e+000 -1.000000e+000
    outer loop
      vertex  6.200000e+001  1.000000e+000  3.000000e+000
      vertex  1.000000e+000  5.200000e+001  3.000000e+000
      vertex  6.200000e+001  5.200000e+001  3.000000e+000
    endloop
  endfacet
  facet normal  -0.000000e+000  0.000000e+000 -1.000000e+000
    outer loop
      vertex -1.500000e+000  5.450000e+001  3.000000e+000
      vertex  0.000000e+000  0.000000e+000  3.000000e+000
      vertex -1.500000e+000 -1.500000e+000  3.000000e+000
    endloop
  endfacet
  facet normal  0.000000e+000  0.000000e+000 -9.999999e-001
    outer loop
      vertex -1.500000e+000 -1.500000e+000  3.000000e+000
      vertex  0.000000e+000  0.000000e+000  3.000000e+000
      vertex  6.300000e+001  0.000000e+000  3.000000e+000
    endloop
  endfacet
  facet normal  0.000000e+000  -0.000000e+000 -1.000000e+000
    outer loop
      vertex -1.500000e+000 -1.500000e+000  3.000000e+000
      vertex  6.300000e+001  0.000000e+000  3.000000e+000
      vertex  6.450000e+001 -1.500000e+000  3.000000e+000
    endloop
  endfacet
  facet normal  0.000000e+000  0.000000e+000 -9.999999e-001
    outer loop
      vertex  0.000000e+000  0.000000e+000  3.000000e+000
      vertex -1.500000e+000  5.450000e+001  3.000000e+000
      vertex  0.000000e+000  5.300000e+001  3.000000e+000
    endloop
  endfacet
  facet normal  0.000000e+000  0.000000e+000 -1.000000e+000
    outer loop
      vertex  0.000000e+000  5.300000e+001  3.000000e+000
      vertex -1.500000e+000  5.450000e+001  3.000000e+000
      vertex  6.450000e+001  5.450000e+001  3.000000e+000
    endloop
  endfacet
  facet normal  0.000000e+000  0.000000e+000 -9.999999e-001
    outer loop
      vertex  0.000000e+000  5.300000e+001  3.000000e+000
      vertex  6.450000e+001  5.450000e+001  3.000000e+000
      vertex  6.300000e+001  5.300000e+001  3.000000e+000
    endloop
  endfacet
  facet normal  0.000000e+000  0.000000e+000 -1.000000e+000
    outer loop
      vertex  6.300000e+001  5.300000e+001  3.000000e+000
      vertex  6.450000e+001  5.450000e+001  3.000000e+000
      vertex  6.450000e+001 -1.500000e+000  3.000000e+000
    endloop
  endfacet
  facet normal  0.000000e+000  0.000000e+000 -9.999999e-001
    outer loop
      vertex  6.300000e+001  5.300000e+001  3.000000e+000
      vertex  6.450000e+001 -1.500000e+000  3.000000e+000
      vertex  6.300000e+001  0.000000e+000  3.000000e+000
    endloop
  endfacet
  facet normal  1.000000e+000  -0.000000e+000  0.000000e+000
    outer loop
      vertex  1.000000e+000  5.200000e+001  3.000000e+000
      vertex  1.000000e+000  1.000000e+000  3.000000e+000
      vertex  1.000000e+000  5.200000e+001  0.000000e+000
    endloop
  endfacet
  facet normal  1.000000e+000  0.000000e+000  0.000000e+000
    outer loop
      vertex  1.000000e+000  5.200000e+001  0.000000e+000
      vertex  1.000000e+000  1.000000e+000  3.000000e+000
      vertex  1.000000e+000  1.000000e+000  0.000000e+000
    endloop
  endfacet
  facet normal  0.000000e+000  1.000000e+000  -0.000000e+000
    outer loop
      vertex  6.200000e+001  1.000000e+000  3.000000e+000
      vertex  6.200000e+001  1.000000e+000  0.000000e+000
      vertex  1.000000e+000  1.000000e+000  3.000000e+000
    endloop
  endfacet
  facet normal  0.000000e+000  1.000000e+000  0.000000e+000
    outer loop
      vertex  1.000000e+000  1.000000e+000  3.000000e+000
      vertex  6.200000e+001  1.000000e+000  0.000000e+000
      vertex  1.000000e+000  1.000000e+000  0.000000e+000
    endloop
  endfacet
  facet normal -1.000000e+000  -0.000000e+000  0.000000e+000
    outer loop
      vertex  6.200000e+001  1.000000e+000  3.000000e+000
      vertex  6.200000e+001  5.200000e+001  3.000000e+000
      vertex  6.200000e+001  1.000000e+000  0.000000e+000
    endloop
  endfacet
  facet normal -1.000000e+000  0.000000e+000  0.000000e+000
    outer loop
      vertex  6.200000e+001  1.000000e+000  0.000000e+000
      vertex  6.200000e+001  5.200000e+001  3.000000e+000
      vertex  6.200000e+001  5.200000e+001  0.000000e+000
    endloop
  endfacet
  facet normal  0.000000e+000 -1.000000e+000  0.000000e+000
    outer loop
      vertex  1.000000e+000  5.200000e+001  3.000000e+000
      vertex  1.000000e+000  5.200000e+001  0.000000e+000
      vertex  6.200000e+001  5.200000e+001  3.000000e+000
    endloop
  endfacet
  facet normal  0.000000e+000 -1.000000e+000  -0.000000e+000
    outer loop
      vertex  6.200000e+001  5.200000e+001  3.000000e+000
      vertex  1.000000e+000  5.200000e+001  0.000000e+000
      vertex  6.200000e+001  5.200000e+001  0.000000e+000
    endloop
  endfacet
  facet normal -9.999999e-001  0.000000e+000  0.000000e+000
    outer loop
      vertex  0.000000e+000  5.300000e+001  3.000000e+000
      vertex  0.000000e+000  5.300000e+001  0.000000e+000
      vertex  0.000000e+000  0.000000e+000  3.000000e+000
    endloop
  endfacet
  facet normal -9.999999e-001  0.000000e+000  0.000000e+000
    outer loop
      vertex  0.000000e+000  0.000000e+000  3.000000e+000
      vertex  0.000000e+000  5.300000e+001  0.000000e+000
      vertex  0.000000e+000  0.000000e+000  0.000000e+000
    endloop
  endfacet
  facet normal  0.000000e+000  9.999999e-001  -0.000000e+000
    outer loop
      vertex  6.300000e+001  5.300000e+001  3.000000e+000
      vertex  6.300000e+001  5.300000e+001  0.000000e+000
      vertex  0.000000e+000  5.300000e+001  3.000000e+000
    endloop
  endfacet
  facet normal  0.000000e+000  9.999999e-001  0.000000e+000
    outer loop
      vertex  0.000000e+000  5.300000e+001  3.000000e+000
      vertex  6.300000e+001  5.300000e+001  0.000000e+000
      vertex  0.000000e+000  5.300000e+001  0.000000e+000
    endloop
  endfacet
  facet normal  9.999999e-001  0.000000e+000  0.000000e+000
    outer loop
      vertex  6.300000e+001  0.000000e+000  3.000000e+000
      vertex  6.300000e+001  0.000000e+000  0.000000e+000
      vertex  6.300000e+001  5.300000e+001  3.000000e+000
    endloop
  endfacet
  facet normal  9.999999e-001  0.000000e+000  0.000000e+000
    outer loop
      vertex  6.300000e+001  5.300000e+001  3.000000e+000
      vertex  6.300000e+001  0.000000e+000  0.000000e+000
      vertex  6.300000e+001  5.300000e+001  0.000000e+000
    endloop
  endfacet
  facet normal  0.000000e+000 -9.999999e-001  0.000000e+000
    outer loop
      vertex  0.000000e+000  0.000000e+000  3.000000e+000
      vertex  0.000000e+000  0.000000e+000  0.000000e+000
      vertex  6.300000e+001  0.000000e+000  3.000000e+000
    endloop
  endfacet
  facet normal  0.000000e+000 -9.999999e-001  -0.000000e+000
    outer loop
      vertex  6.300000e+001  0.000000e+000  3.000000e+000
      vertex  0.000000e+000  0.000000e+000  0.000000e+000
      vertex  6.300000e+001  0.000000e+000  0.000000e+000
    endloop
  endfacet
  facet normal  0.000000e+000  0.000000e+000  1.000000e+000
    outer loop
      vertex -1.500000e+000 -1.500000e+000  6.000000e+000
      vertex  6.450000e+001 -1.500000e+000  6.000000e+000
      vertex -1.500000e+000  5.450000e+001  6.000000e+000
    endloop
  endfacet
  facet normal  -0.000000e+000  0.000000e+000  1.000000e+000
    outer loop
      vertex -1.500000e+000  5.450000e+001  6.000000e+000
      vertex  6.450000e+001 -1.500000e+000  6.000000e+000
      vertex  6.450000e+001  5.450000e+001  6.000000e+000
    endloop
  endfacet
  facet normal  0.000000e+000  1.000000e+000  0.000000e+000
    outer loop
      vertex -1.500000e+000  5.450000e+001  6.000000e+000
      vertex  6.450000e+001  5.450000e+001  6.000000e+000
      vertex -1.500000e+000  5.450000e+001  3.000000e+000
    endloop
  endfacet
  facet normal  0.000000e+000  1.000000e+000  0.000000e+000
    outer loop
      vertex -1.500000e+000  5.450000e+001  3.000000e+000
      vertex  6.450000e+001  5.450000e+001  6.000000e+000
      vertex  6.450000e+001  5.450000e+001  3.000000e+000
    endloop
  endfacet
  facet normal  1.000000e+000  0.000000e+000  0.000000e+000
    outer loop
      vertex  6.450000e+001 -1.500000e+000  6.000000e+000
      vertex  6.450000e+001 -1.500000e+000  3.000000e+000
      vertex  6.450000e+001  5.450000e+001  6.000000e+000
    endloop
  endfacet
  facet normal  1.000000e+000  0.000000e+000  0.000000e+000
    outer loop
      vertex  6.450000e+001  5.450000e+001  6.000000e+000
      vertex  6.450000e+001 -1.500000e+000  3.000000e+000
      vertex  6.450000e+001  5.450000e+001  3.000000e+000
    endloop
  endfacet
  facet normal  0.000000e+000 -1.000000e+000  0.000000e+000
    outer loop
      vertex  6.450000e+001 -1.500000e+000  6.000000e+000
      vertex -1.500000e+000 -1.500000e+000  6.000000e+000
      vertex  6.450000e+001 -1.500000e+000  3.000000e+000
    endloop
  endfacet
  facet normal  0.000000e+000 -1.000000e+000  0.000000e+000
    outer loop
      vertex  6.450000e+001 -1.500000e+000  3.000000e+000
      vertex -1.500000e+000 -1.500000e+000  6.000000e+000
      vertex -1.500000e+000 -1.500000e+000  3.000000e+000
    endloop
  endfacet
  facet normal -1.000000e+000  0.000000e+000  0.000000e+000
    outer loop
      vertex -1.500000e+000  5.450000e+001  6.000000e+000
      vertex -1.500000e+000  5.450000e+001  3.000000e+000
      vertex -1.500000e+000 -1.500000e+000  6.000000e+000
    endloop
  endfacet
  facet normal -1.000000e+000  0.000000e+000  0.000000e+000
    outer loop
      vertex -1.500000e+000 -1.500000e+000  6.000000e+000
      vertex -1.500000e+000  5.450000e+001  3.000000e+000
      vertex -1.500000e+000 -1.500000e+000  3.000000e+000
    endloop
  endfacet
  facet normal  -0.000000e+000  0.000000e+000 -1.000000e+000
    outer loop
      vertex  0.000000e+000  5.300000e+001  0.000000e+000
      vertex  1.000000e+000  1.000000e+000  0.000000e+000
      vertex  0.000000e+000  0.000000e+000  0.000000e+000
    endloop
  endfacet
  facet normal  0.000000e+000  0.000000e+000 -9.999999e-001
    outer loop
      vertex  0.000000e+000  0.000000e+000  0.000000e+000
      vertex  1.000000e+000  1.000000e+000  0.000000e+000
      vertex  6.200000e+001  1.000000e+000  0.000000e+000
    endloop
  endfacet
  facet normal  0.000000e+000  -0.000000e+000 -1.000000e+000
    outer loop
      vertex  0.000000e+000  0.000000e+000  0.000000e+000
      vertex  6.200000e+001  1.000000e+000  0.000000e+000
      vertex  6.300000e+001  0.000000e+000  0.000000e+000
    endloop
  endfacet
  facet normal  0.000000e+000  0.000000e+000 -1.000000e+000
    outer loop
      vertex  1.000000e+000  1.000000e+000  0.000000e+000
      vertex  0.000000e+000  5.300000e+001  0.000000e+000
      vertex  1.000000e+000  5.200000e+001  0.000000e+000
    endloop
  endfacet
  facet normal  0.000000e+000  0.000000e+000 -1.000000e+000
    outer loop
      vertex  1.000000e+000  5.200000e+001  0.000000e+000
      vertex  0.000000e+000  5.300000e+001  0.000000e+000
      vertex  6.300000e+001  5.300000e+001  0.000000e+000
    endloop
  endfacet
  facet normal  0.000000e+000  0.000000e+000 -9.999999e-001
    outer loop
      vertex  1.000000e+000  5.200000e+001  0.000000e+000
      vertex  6.300000e+001  5.300000e+001  0.000000e+000
      vertex  6.200000e+001  5.200000e+001  0.000000e+000
    endloop
  endfacet
  facet normal  0.000000e+000  0.000000e+000 -1.000000e+000
    outer loop
      vertex  6.200000e+001  5.200000e+001  0.000000e+000
      vertex  6.300000e+001  5.300000e+001  0.000000e+000
      vertex  6.300000e+001  0.000000e+000  0.000000e+000
    endloop
  endfacet
  facet normal  0.000000e+000  0.000000e+000 -1.000000e+000
    outer loop
      vertex  6.200000e+001  5.200000e+001  0.000000e+000
      vertex  6.300000e+001  0.000000e+000  0.000000e+000
      vertex  6.200000e+001  1.000000e+000  0.000000e+000
    endloop
  endfacet
endsolid CATIA STL
